<svg width="128" height="128" viewBox="0 0 128 128" fill="none" xmlns="http://www.w3.org/2000/svg">
  <rect width="128" height="128" rx="16" fill="#2563eb"/>
  <path d="M64 32C45.2 32 30 47.2 30 66C30 84.8 45.2 100 64 100C82.8 100 98 84.8 98 66C98 47.2 82.8 32 64 32ZM64 88C50.7 88 40 77.3 40 64C40 50.7 50.7 40 64 40C77.3 40 88 50.7 88 64C88 77.3 77.3 88 64 88Z" fill="white"/>
  <path d="M64 48C55.2 48 48 55.2 48 64C48 72.8 55.2 80 64 80C72.8 80 80 72.8 80 64C80 55.2 72.8 48 64 48ZM64 72C59.6 72 56 68.4 56 64C56 59.6 59.6 56 64 56C68.4 56 72 59.6 72 64C72 68.4 68.4 72 64 72Z" fill="white"/>
</svg>
